<svg width="47" height="43" viewBox="0 0 47 43" fill="none" xmlns="http://www.w3.org/2000/svg">
<path d="M42.0797 3.10148C36.7738 -1.56198 28.5764 -0.861501 23.5 4.54082C18.4236 -0.861501 10.2262 -1.57158 4.92032 3.10148C-1.9828 9.1755 -0.973036 19.0782 3.94727 24.327L20.0484 41.4743C20.9664 42.4531 22.1965 43 23.5 43C24.8127 43 26.0336 42.4626 26.9516 41.4839L43.0527 24.3366C47.9638 19.0878 48.992 9.18509 42.0797 3.10148V3.10148ZM39.9133 21.0932L23.8121 38.2406C23.5918 38.4709 23.4082 38.4709 23.1879 38.2406L7.08672 21.0932C3.73614 17.5237 3.05684 10.7684 7.75684 6.63266C11.3277 3.4949 16.8355 3.96509 20.2871 7.6402L23.5 11.0658L26.7129 7.6402C30.1828 3.9459 35.6906 3.4949 39.2431 6.62307C43.934 10.7588 43.2363 17.5525 39.9133 21.0932V21.0932Z" fill="#F2821B"/>
</svg>
