<svg width="546" height="274" viewBox="0 0 546 274" fill="none" xmlns="http://www.w3.org/2000/svg">
<path d="M129.972 136V14.5H160.122C167.422 14.5 173.222 15.85 177.522 18.55C181.922 21.15 185.122 24.95 187.122 29.95C189.122 34.95 190.122 41 190.122 48.1C190.122 54.5 188.972 60.05 186.672 64.75C184.472 69.45 181.172 73.1 176.772 75.7C172.372 78.2 166.872 79.45 160.272 79.45H146.922V136H129.972ZM146.922 67.3H154.722C159.622 67.3 163.472 66.75 166.272 65.65C169.072 64.55 171.072 62.65 172.272 59.95C173.472 57.15 174.072 53.25 174.072 48.25C174.072 42.45 173.622 38 172.722 34.9C171.922 31.8 170.172 29.65 167.472 28.45C164.772 27.25 160.572 26.65 154.872 26.65H146.922V67.3ZM178.48 136L204.28 14.5H220.63L246.58 136H230.53L224.98 105.4H200.23L194.38 136H178.48ZM202.48 93.25H222.73L212.53 38.5L202.48 93.25ZM256.174 136V27.1H235.624V14.5H293.074V27.1H273.124V136H256.174ZM286.037 136L311.387 72.4L286.487 14.5H302.237L320.687 57.4L337.487 14.5H353.237L327.737 73.75L354.437 136H338.687L318.887 90.25L301.787 136H286.037ZM354.35 136V49.3H370.4V136H354.35ZM354.35 36.4V19.6H370.4V36.4H354.35Z" fill="white"/>
<path d="M52.6482 272V150.5H80.5482C86.0482 150.5 90.7982 151.1 94.7982 152.3C98.8982 153.5 102.298 155.35 104.998 157.85C107.698 160.35 109.698 163.55 110.998 167.45C112.298 171.25 112.948 175.75 112.948 180.95C112.948 185.95 112.298 190.3 110.998 194C109.798 197.6 107.898 200.45 105.298 202.55C102.798 204.65 99.5482 206 95.5482 206.6C100.448 207.7 104.398 209.6 107.398 212.3C110.398 214.9 112.598 218.3 113.998 222.5C115.498 226.6 116.248 231.55 116.248 237.35C116.248 242.55 115.648 247.3 114.448 251.6C113.248 255.9 111.348 259.55 108.748 262.55C106.248 265.55 102.998 267.9 98.9982 269.6C95.0982 271.2 90.4482 272 85.0482 272H52.6482ZM69.5982 259.85H80.9982C88.5982 259.85 93.6482 258.1 96.1482 254.6C98.7482 251 100.048 245.25 100.048 237.35C100.048 232.25 99.3482 228 97.9482 224.6C96.6482 221.1 94.4982 218.5 91.4982 216.8C88.5982 215 84.6482 214.1 79.6482 214.1H69.5982V259.85ZM69.5982 201.2H79.6482C84.4482 201.2 88.1982 200.55 90.8982 199.25C93.5982 197.85 95.4982 195.65 96.5982 192.65C97.6982 189.65 98.2482 185.75 98.2482 180.95C98.2482 175.35 97.3982 171.3 95.6982 168.8C93.9982 166.3 91.3482 164.75 87.7482 164.15C84.1482 163.45 79.4482 163.1 73.6482 163.1H69.5982V201.2ZM119.31 272V150.5H136.26V259.85H167.31V272H119.31ZM167.829 272V150.5H184.479V272H167.829ZM192.137 272V150.5H203.687L238.187 231.2V150.5H252.287V272H241.487L206.537 189.05V272H192.137ZM259.385 272V150.5H285.785C294.785 150.5 301.885 151.9 307.085 154.7C312.385 157.4 316.135 161.5 318.335 167C320.635 172.5 321.785 179.35 321.785 187.55V232.25C321.785 240.85 320.635 248.1 318.335 254C316.135 259.9 312.485 264.4 307.385 267.5C302.385 270.5 295.635 272 287.135 272H259.385ZM276.335 259.85H285.935C292.135 259.85 296.535 258.65 299.135 256.25C301.735 253.85 303.285 250.35 303.785 245.75C304.385 241.15 304.685 235.6 304.685 229.1V189.65C304.685 183.35 304.285 178.25 303.485 174.35C302.685 170.45 300.935 167.6 298.235 165.8C295.535 164 291.285 163.1 285.485 163.1H276.335V259.85ZM326.486 272V150.5H373.586V163.1H343.436V203.3H367.886V215.3H343.436V259.85H373.886V272H326.486ZM375.57 272V150.5H400.02C408.12 150.5 414.82 151.6 420.12 153.8C425.42 155.9 429.32 159.35 431.82 164.15C434.42 168.85 435.72 175.05 435.72 182.75C435.72 187.45 435.22 191.75 434.22 195.65C433.22 199.45 431.62 202.7 429.42 205.4C427.22 208 424.32 209.9 420.72 211.1L437.97 272H421.62L405.72 215H392.52V272H375.57ZM392.52 202.85H398.97C403.77 202.85 407.67 202.25 410.67 201.05C413.67 199.85 415.87 197.8 417.27 194.9C418.67 192 419.37 187.95 419.37 182.75C419.37 175.65 418.07 170.55 415.47 167.45C412.87 164.25 407.72 162.65 400.02 162.65H392.52V202.85ZM470.003 273.35C463.003 273.35 457.153 271.85 452.453 268.85C447.853 265.85 444.353 261.7 441.953 256.4C439.553 251.1 438.153 244.95 437.753 237.95L452.753 233.9C453.053 238.2 453.703 242.35 454.703 246.35C455.803 250.35 457.553 253.65 459.953 256.25C462.353 258.75 465.703 260 470.003 260C474.403 260 477.703 258.8 479.903 256.4C482.203 253.9 483.353 250.35 483.353 245.75C483.353 240.25 482.103 235.85 479.603 232.55C477.103 229.15 473.953 225.75 470.153 222.35L449.753 204.35C445.753 200.85 442.803 197.05 440.903 192.95C439.003 188.75 438.053 183.6 438.053 177.5C438.053 168.6 440.603 161.7 445.703 156.8C450.803 151.9 457.753 149.45 466.553 149.45C471.353 149.45 475.553 150.1 479.153 151.4C482.853 152.6 485.903 154.5 488.303 157.1C490.803 159.7 492.753 163 494.153 167C495.653 170.9 496.653 175.5 497.153 180.8L482.753 184.7C482.453 180.7 481.853 177.05 480.953 173.75C480.053 170.35 478.453 167.65 476.153 165.65C473.953 163.55 470.753 162.5 466.553 162.5C462.353 162.5 459.053 163.65 456.653 165.95C454.353 168.15 453.203 171.45 453.203 175.85C453.203 179.55 453.803 182.6 455.003 185C456.303 187.4 458.353 189.85 461.153 192.35L481.703 210.35C486.303 214.35 490.353 219.15 493.853 224.75C497.353 230.25 499.103 236.8 499.103 244.4C499.103 250.4 497.853 255.6 495.353 260C492.853 264.3 489.403 267.6 485.003 269.9C480.703 272.2 475.703 273.35 470.003 273.35Z" fill="white"/>
</svg>
