<svg width="516" height="117" viewBox="0 0 516 117" fill="none" xmlns="http://www.w3.org/2000/svg">
<path d="M29.88 16.44L0.408 116.472H16.536L46.104 16.44H29.88ZM60.984 14.136L65.112 0.215996H21.816L15.768 14.136H60.984ZM83.4173 29.208H69.0173L60.7613 57.144H53.4653L61.6253 29.208H47.2253L26.6813 99H41.0813L49.8173 69.528H57.1133L48.4733 99H62.8733L83.4173 29.208ZM101.058 40.44H104.706C106.05 40.44 106.434 41.208 106.146 42.264L93.378 85.656C93.09 86.712 92.226 87.384 91.074 87.384H87.33C86.178 87.384 85.698 86.712 85.986 85.656L98.85 42.168C99.138 41.208 99.618 40.44 101.058 40.44ZM95.202 29.208C90.498 29.208 87.234 31.992 86.178 36.024L70.434 89.496C68.706 95.448 72.45 99 77.346 99H94.53C99.33 99 104.034 97.368 105.762 91.608L121.794 37.176C122.946 33.048 120.642 29.208 116.13 29.208H95.202ZM108.338 99H121.97L130.322 71.16L131.57 99H143.186L163.73 29.208H149.714L141.746 56.184L141.266 29.208H128.882L108.338 99ZM181.402 40.44H185.05C186.394 40.44 186.778 41.208 186.49 42.264L173.722 85.656C173.434 86.712 172.57 87.384 171.418 87.384H167.674C166.522 87.384 166.042 86.712 166.33 85.656L179.194 42.168C179.482 41.208 179.962 40.44 181.402 40.44ZM175.546 29.208C170.842 29.208 167.578 31.992 166.522 36.024L150.778 89.496C149.05 95.448 152.794 99 157.69 99H174.874C179.674 99 184.378 97.368 186.106 91.608L202.138 37.176C203.29 33.048 200.986 29.208 196.474 29.208H175.546ZM234.473 41.784L238.217 29.208H215.849C212.393 29.208 208.937 30.168 207.305 35.064L199.337 62.136C197.897 67.224 199.337 70.584 205.385 70.584H213.065C213.929 70.584 213.929 70.968 213.737 71.544L210.377 83.352C209.801 85.08 209.417 85.752 206.729 85.752H194.633L190.697 99H214.409C217.385 99 220.553 97.56 221.321 94.776L229.289 67.704C231.305 60.888 228.041 58.008 222.857 58.008H215.081L219.209 43.8C219.689 42.264 220.745 41.784 221.801 41.784H234.473ZM248.681 99H278.825L283.817 85.752H268.073L284.681 29.208H269.225L248.681 99ZM283.744 99H310.72L315.52 85.752H302.176L306.976 69.528H319.552L323.2 57.144H310.624L315.136 41.784H328L331.744 29.208H304.288L283.744 99ZM347.678 29.208L343.934 41.784H353.918L336.926 99H351.326L367.934 41.784H377.726L381.47 29.208H347.678ZM400.355 29.208H385.475L364.931 99H379.811L400.355 29.208ZM404.491 29.208L400.747 41.784H410.731L393.739 99H408.139L424.747 41.784H434.539L438.283 29.208H404.491ZM446.535 75.96H439.335L452.007 44.376L446.535 75.96ZM430.407 99L435.399 86.424H444.903L442.695 99H457.095L466.599 29.208H445.959L415.335 99H430.407ZM460.369 99H474.001L482.353 71.16L483.601 99H495.217L515.761 29.208H501.745L493.777 56.184L493.297 29.208H480.913L460.369 99Z" fill="white"/>
</svg>
