<svg width="390" height="105" viewBox="0 0 390 105" fill="none" xmlns="http://www.w3.org/2000/svg">
<path d="M0.95 9.59999V-7.15256e-06H41.9V9.59999H27.35V105H15.5V9.59999H0.95ZM53.2742 105V-7.15256e-06H65.2742V105H53.2742ZM76.6824 9.59999V-7.15256e-06H117.632V9.59999H103.082V105H91.2324V9.59999H76.6824ZM141.007 57.45V95.4H167.107V105H129.007V-7.15256e-06H166.657V9.59999H141.007V47.85H164.407V57.45H141.007ZM194.613 105H182.913V-7.15256e-06H201.213L213.963 72.75L226.863 -7.15256e-06H245.163V105H233.463V10.2L220.713 82.5H207.363L194.613 10.2V105ZM275.765 105H264.065V-7.15256e-06H282.365L295.115 72.75L308.015 -7.15256e-06H326.315V105H314.615V10.2L301.865 82.5H288.515L275.765 10.2V105ZM369.668 105H357.968V69.9L338.168 -7.15256e-06H349.868L363.818 54.15L377.618 -7.15256e-06H389.318L369.668 69.9V105Z" fill="white"/>
</svg>
