<svg width="147" height="49" viewBox="0 0 147 49" fill="none" xmlns="http://www.w3.org/2000/svg">
<path d="M26.952 9.28V3.136H0.712V48H6.728V28.992H22.984V23.296H6.728V9.28H26.952ZM37.2115 0.0639992H31.3235V48H37.2115V0.0639992ZM57.786 15.936C49.274 15.936 42.17 23.104 42.17 32.064C42.17 41.024 49.274 48.128 57.786 48.128C63.418 48.128 68.346 45.248 71.098 40.64H63.162C61.69 41.728 59.898 42.304 57.786 42.304C53.306 42.304 49.466 39.232 48.314 34.88H67.386H72.634H73.274C73.466 34.048 73.53 33.152 73.53 32.064C73.53 23.104 66.49 15.936 57.786 15.936ZM57.786 21.76C62.33 21.76 66.234 24.96 67.386 29.184H48.314C49.53 24.896 53.242 21.76 57.786 21.76ZM95.696 38.656L91.856 31.936L100.88 16.128H94.416L88.72 26.304L83.024 16.128H76.624L85.648 31.936L81.872 38.656L76.368 48.064H82.32H82.768V47.68L88.72 37.312L94.672 47.68V48.064H101.2L95.696 38.656ZM111.579 3.2H105.371V48.064H111.579V3.2ZM146.325 30.912C145.621 22.72 139.285 16 131.285 16C128.021 16 125.013 17.216 122.517 19.072V16H116.693V48H122.517V28.416C123.989 24.576 127.189 22.016 131.285 22.016C135.637 22.016 139.285 25.024 140.501 29.312V47.936H146.325V30.912Z" fill="#F2821B"/>
</svg>
